<svg width="24" height="24" viewBox="0 0 24 24" fill="none" xmlns="http://www.w3.org/2000/svg">
  <path d="M15.5455 9.92543C15.9195 9.26103 16.2313 8.66151 16.4236 8.11104C17.3573 5.59135 17.5355 3.81688 16.4236 2.71026C14.3451 0.654435 10.8997 6.04019 7.82141 11.5289C7.11526 12.7953 6.52532 14.037 6.04633 15.1385C5.57675 16.213 5.21515 17.151 5.01593 17.9114C4.72439 19.0159 4.49865 20.5311 4.90868 21.2922C5.32729 22.0691 6.23498 22.1371 6.74998 22.1371C7.23328 22.1371 7.82462 21.8681 8.21765 21.2766C8.65557 20.6353 8.87275 19.0592 9.19067 17.2513C9.43201 15.8897 9.71909 14.3357 10.0716 12.9055C10.256 12.8736 10.4489 12.8345 10.6547 12.7896C10.7291 12.7763 10.7946 12.7573 10.8675 12.7395C10.9008 12.7315 10.9335 12.7234 10.9663 12.7152C11.2549 12.6305 11.4305 12.5084 11.4825 12.3476C11.6298 11.9217 11.2932 11.4421 10.7952 11.2729C10.7681 11.2645 10.7405 11.2582 10.7139 11.2535C10.6757 11.2463 10.6397 11.2418 10.6058 11.24C10.5302 11.2356 10.4487 11.2411 10.3673 11.257C10.2611 11.2773 10.1551 11.3153 10.056 11.3688C9.97401 11.4161 9.89832 11.474 9.83271 11.5401C9.82929 11.5433 9.82588 11.5465 9.82251 11.5496C9.76351 11.6027 9.71081 11.6596 9.66368 11.7201C9.61273 11.786 9.57026 11.8571 9.53778 11.9321C9.53282 11.9429 9.52795 11.9539 9.52319 11.9651C9.40046 12.2566 9.44903 12.6003 9.65982 12.8799C9.19332 14.4221 8.90879 15.9585 8.67067 17.3027C8.34919 19.1442 8.15258 20.5297 7.87298 20.9482C7.75502 21.1312 7.64349 21.2311 7.51521 21.2841C7.39102 21.3355 7.13494 21.3307 6.94317 21.1276C6.9416 21.126 6.94004 21.1243 6.93848 21.1225C6.83275 21.0064 6.8298 20.0568 7.04794 19.2522C7.21446 18.6215 7.5348 17.7552 8.00574 16.6653C8.47668 15.5754 9.06923 14.3309 9.7799 13.0573C11.7576 9.20878 14.4261 5.61198 15.6527 5.76511C15.7231 5.77587 15.786 5.79215 15.8386 5.81373C15.9205 5.84841 15.9733 5.89425 16.006 5.94741C16.0481 6.01674 16.0732 6.12389 16.0459 6.28957C15.8992 7.15305 15.1459 8.52731 14.1289 9.79811C13.3422 10.7857 12.4463 11.7118 11.4589 12.547C11.3792 12.6144 11.3005 12.6809 11.2208 12.7464C11.2049 12.7602 11.1889 12.7739 11.1729 12.7875C11.1064 12.8437 11.0391 12.8989 10.9713 12.9527C10.9713 12.9527 10.8163 13.0493 10.759 13.0899C10.6733 13.1493 10.5971 13.2587 10.5644 13.3267C10.4472 13.5881 10.6276 13.9041 10.9403 14.0535C10.9449 14.0556 10.9496 14.0578 10.9543 14.0599C11.2343 14.1931 11.5611 14.1382 11.7274 13.9346C12.0532 13.5359 12.3247 13.1837 12.5644 12.8866C12.5773 12.8715 12.5901 12.8565 12.6029 12.8416C13.2555 12.0952 13.8311 11.3848 14.34 10.7186C14.7583 10.1572 15.1393 9.61563 15.4586 9.09912C15.4876 9.04146 15.5158 8.98418 15.5433 8.92731C15.5444 8.9251 15.5455 8.92288 15.5466 8.92066C15.5484 8.91728 15.5503 8.9139 15.5521 8.91052C15.5454 8.9481 15.5455 8.9492 15.5455 9.92543Z" fill="#c9a73b"/>
</svg>